<?xml version="1.0" encoding="UTF-8" standalone="no"?>
<!DOCTYPE svg PUBLIC "-//W3C//DTD SVG 1.1//EN" "http://www.w3.org/Graphics/SVG/1.1/DTD/svg11.dtd">
<!-- 由 Microsoft Visio, SVG Export 生成 20201121342.svg 页-1 -->
<svg xmlns="http://www.w3.org/2000/svg" xmlns:xlink="http://www.w3.org/1999/xlink" xmlns:ev="http://www.w3.org/2001/xml-events"
		xmlns:v="http://schemas.microsoft.com/visio/2003/SVGExtensions/" width="2.04428in" height="1.61889in"
		viewBox="0 0 147.188 116.56" xml:space="preserve" color-interpolation-filters="sRGB" class="st6">
	<v:documentProperties v:langID="2052" v:metric="true" v:viewMarkup="false"/>

	<style type="text/css">
	<![CDATA[
		.st1 {fill:#ffffff;stroke:#000000;stroke-linecap:round;stroke-linejoin:round;stroke-width:0.24}
		.st2 {fill:#000000;font-family:Times New Roman;font-size:0.833336em}
		.st3 {stroke:#000000;stroke-linecap:round;stroke-linejoin:round;stroke-width:0.75}
		.st4 {fill:none;stroke:none;stroke-linecap:round;stroke-linejoin:round;stroke-width:0.75}
		.st5 {fill:#000000;font-family:Times New Roman;font-size:1.00001em}
		.st6 {fill:none;fill-rule:evenodd;font-size:12px;overflow:visible;stroke-linecap:square;stroke-miterlimit:3}
	]]>
	</style>

	<g v:mID="0" v:index="1" v:groupContext="foregroundPage">
		<title>页-1</title>
		<v:pageProperties v:drawingScale="0.0393701" v:pageScale="0.0393701" v:drawingUnits="24" v:shadowOffsetX="8.50394"
				v:shadowOffsetY="-8.50394"/>
		<g id="shape19-1" v:mID="19" v:groupContext="shape" transform="translate(40.868,-82.5294)">
			<title>圆形</title>
			<desc>49</desc>
			<v:userDefs>
				<v:ud v:nameU="visVersion" v:val="VT0(15):26"/>
			</v:userDefs>
			<v:textBlock v:margins="rect(4,4,4,4)" v:tabSpace="42.5197"/>
			<v:textRect cx="12.0472" cy="104.513" width="21.09" height="18.0709"/>
			<path d="M0 104.51 A12.0472 12.0472 0 1 1 24.09 104.51 A12.0472 12.0472 0 0 1 0 104.51 Z" class="st1"/>
			<text x="7.05" y="107.51" class="st2" v:langID="2052"><v:paragraph v:horizAlign="1"/><v:tabList/>49</text>		</g>
		<g id="shape20-4" v:mID="20" v:groupContext="shape" transform="translate(0.12,-45.4743)">
			<title>圆形.20</title>
			<desc>46</desc>
			<v:userDefs>
				<v:ud v:nameU="visVersion" v:val="VT0(15):26"/>
			</v:userDefs>
			<v:textBlock v:margins="rect(4,4,4,4)" v:tabSpace="42.5197"/>
			<v:textRect cx="12.0472" cy="104.513" width="21.09" height="18.0709"/>
			<path d="M0 104.51 A12.0472 12.0472 0 1 1 24.09 104.51 A12.0472 12.0472 0 0 1 0 104.51 Z" class="st1"/>
			<text x="7.05" y="107.51" class="st2" v:langID="2052"><v:paragraph v:horizAlign="1"/><v:tabList/>46</text>		</g>
		<g id="shape21-7" v:mID="21" v:groupContext="shape" transform="translate(81.6161,-45.4743)">
			<title>圆形.21</title>
			<desc>79</desc>
			<v:userDefs>
				<v:ud v:nameU="visVersion" v:val="VT0(15):26"/>
			</v:userDefs>
			<v:textBlock v:margins="rect(4,4,4,4)" v:tabSpace="42.5197"/>
			<v:textRect cx="12.0472" cy="104.513" width="21.09" height="18.0709"/>
			<path d="M0 104.51 A12.0472 12.0472 0 1 1 24.09 104.51 A12.0472 12.0472 0 0 1 0 104.51 Z" class="st1"/>
			<text x="7.05" y="107.51" class="st2" v:langID="2052"><v:paragraph v:horizAlign="1"/><v:tabList/>79</text>		</g>
		<g id="shape22-10" v:mID="22" v:groupContext="shape" transform="translate(47.6003,-0.828661)">
			<title>圆形.22</title>
			<desc>64</desc>
			<v:userDefs>
				<v:ud v:nameU="visVersion" v:val="VT0(15):26"/>
			</v:userDefs>
			<v:textBlock v:margins="rect(4,4,4,4)" v:tabSpace="42.5197"/>
			<v:textRect cx="12.0472" cy="104.513" width="21.09" height="18.0709"/>
			<path d="M0 104.51 A12.0472 12.0472 0 1 1 24.09 104.51 A12.0472 12.0472 0 0 1 0 104.51 Z" class="st1"/>
			<text x="7.05" y="107.51" class="st2" v:langID="2052"><v:paragraph v:horizAlign="1"/><v:tabList/>64</text>		</g>
		<g id="shape23-13" v:mID="23" v:groupContext="shape" transform="translate(115.632,-0.12)">
			<title>圆形.23</title>
			<desc>83</desc>
			<v:userDefs>
				<v:ud v:nameU="visVersion" v:val="VT0(15):26"/>
			</v:userDefs>
			<v:textBlock v:margins="rect(4,4,4,4)" v:tabSpace="42.5197"/>
			<v:textRect cx="12.0472" cy="104.513" width="21.09" height="18.0709"/>
			<path d="M0 104.51 A12.0472 12.0472 0 1 1 24.09 104.51 A12.0472 12.0472 0 0 1 0 104.51 Z" class="st1"/>
			<text x="7.05" y="107.51" class="st2" v:langID="2052"><v:paragraph v:horizAlign="1"/><v:tabList/>83</text>		</g>
		<g id="shape26-16" v:mID="26" v:groupContext="shape" transform="translate(165.175,152.3) rotate(136.638)">
			<title>工作表.26</title>
			<path d="M0 116.56 L35.07 116.56" class="st3"/>
		</g>
		<g id="shape27-19" v:mID="27" v:groupContext="shape" transform="translate(183.434,-16.0155) rotate(44.1926)">
			<title>工作表.27</title>
			<path d="M0 116.56 L35.56 116.56" class="st3"/>
		</g>
		<g id="shape28-22" v:mID="28" v:groupContext="shape" transform="translate(119.587,119.567) rotate(139.828)">
			<title>工作表.28</title>
			<path d="M0 116.56 L31.03 116.56" class="st3"/>
		</g>
		<g id="shape29-25" v:mID="29" v:groupContext="shape" transform="translate(136.626,-58.5614) rotate(40.1722)">
			<title>工作表.29</title>
			<path d="M0 116.56 L31.03 116.56" class="st3"/>
		</g>
		<g id="shape30-28" v:mID="30" v:groupContext="shape" transform="translate(134.947,-20.1182)">
			<title>工作表.30</title>
			<desc>1</desc>
			<v:textBlock v:margins="rect(4,4,4,4)" v:tabSpace="42.5197"/>
			<v:textRect cx="5.93307" cy="108.488" width="11.87" height="16.1435"/>
			<rect x="0" y="100.416" width="11.8661" height="16.1435" class="st4"/>
			<text x="4" y="112.09" class="st5" v:langID="2052"><v:paragraph v:horizAlign="1"/><v:tabList/>1</text>		</g>
		<g id="shape33-31" v:mID="33" v:groupContext="shape" transform="translate(68.8602,-20.1182)">
			<title>工作表.33</title>
			<desc>1</desc>
			<v:textBlock v:margins="rect(4,4,4,4)" v:tabSpace="42.5197"/>
			<v:textRect cx="5.93307" cy="108.488" width="11.87" height="16.1435"/>
			<rect x="0" y="100.416" width="11.8661" height="16.1435" class="st4"/>
			<text x="4" y="112.09" class="st5" v:langID="2052"><v:paragraph v:horizAlign="1"/><v:tabList/>1</text>		</g>
		<g id="shape34-34" v:mID="34" v:groupContext="shape" transform="translate(21.5609,-53.4253)">
			<title>工作表.34</title>
			<desc>1</desc>
			<v:textBlock v:margins="rect(4,4,4,4)" v:tabSpace="42.5197"/>
			<v:textRect cx="5.93307" cy="108.488" width="11.87" height="16.1435"/>
			<rect x="0" y="100.416" width="11.8661" height="16.1435" class="st4"/>
			<text x="4" y="112.09" class="st5" v:langID="2052"><v:paragraph v:horizAlign="1"/><v:tabList/>1</text>		</g>
		<g id="shape35-37" v:mID="35" v:groupContext="shape" transform="translate(104.293,-62.6379)">
			<title>工作表.35</title>
			<desc>3</desc>
			<v:textBlock v:margins="rect(4,4,4,4)" v:tabSpace="42.5197"/>
			<v:textRect cx="5.93307" cy="108.488" width="11.87" height="16.1435"/>
			<rect x="0" y="100.416" width="11.8661" height="16.1435" class="st4"/>
			<text x="4" y="112.09" class="st5" v:langID="2052"><v:paragraph v:horizAlign="1"/><v:tabList/>3</text>		</g>
		<g id="shape38-40" v:mID="38" v:groupContext="shape" transform="translate(62.9271,-100.041)">
			<title>工作表.38</title>
			<desc>5</desc>
			<v:textBlock v:margins="rect(4,4,4,4)" v:tabSpace="42.5197"/>
			<v:textRect cx="5.93307" cy="108.488" width="11.87" height="16.1435"/>
			<rect x="0" y="100.416" width="11.8661" height="16.1435" class="st4"/>
			<text x="4" y="112.09" class="st5" v:langID="2052"><v:paragraph v:horizAlign="1"/><v:tabList/>5</text>		</g>
	</g>
</svg>
