<?xml version="1.0" encoding="UTF-8" standalone="no"?>
<!DOCTYPE svg PUBLIC "-//W3C//DTD SVG 1.1//EN" "http://www.w3.org/Graphics/SVG/1.1/DTD/svg11.dtd">
<!-- 由 Microsoft Visio, SVG Export 生成 20201121346.svg Page-1 -->
<svg xmlns="http://www.w3.org/2000/svg" xmlns:xlink="http://www.w3.org/1999/xlink" xmlns:ev="http://www.w3.org/2001/xml-events"
		xmlns:v="http://schemas.microsoft.com/visio/2003/SVGExtensions/" width="3.07801in" height="2.12532in"
		viewBox="0 0 221.617 153.023" xml:space="preserve" color-interpolation-filters="sRGB" class="st6">
	<v:documentProperties v:langID="2052" v:metric="true" v:viewMarkup="false">
		<v:userDefs>
			<v:ud v:nameU="msvNoAutoConnect" v:val="VT0(1):26"/>
		</v:userDefs>
	</v:documentProperties>

	<style type="text/css">
	<![CDATA[
		.st1 {fill:#ffffff;stroke:#000000;stroke-linecap:round;stroke-linejoin:round;stroke-width:0.24}
		.st2 {fill:#000000;font-family:Times New Roman;font-size:0.833336em}
		.st3 {stroke:#000000;stroke-linecap:round;stroke-linejoin:round;stroke-width:0.75}
		.st4 {fill:none;stroke:none;stroke-linecap:round;stroke-linejoin:round;stroke-width:0.75}
		.st5 {fill:#000000;font-family:Times New Roman;font-size:1.00001em}
		.st6 {fill:none;fill-rule:evenodd;font-size:12px;overflow:visible;stroke-linecap:square;stroke-miterlimit:3}
	]]>
	</style>

	<g v:mID="0" v:index="1" v:groupContext="foregroundPage">
		<title>页-1</title>
		<v:pageProperties v:drawingScale="0.0393701" v:pageScale="0.0393701" v:drawingUnits="24" v:shadowOffsetX="8.50394"
				v:shadowOffsetY="-8.50394"/>
		<v:layer v:name="连接线" v:index="0"/>
		<g id="shape19-1" v:mID="19" v:groupContext="shape" transform="translate(97.2968,-100.992)">
			<title>圆形</title>
			<desc>49</desc>
			<v:userDefs>
				<v:ud v:nameU="visVersion" v:val="VT0(15):26"/>
			</v:userDefs>
			<v:textBlock v:margins="rect(4,4,4,4)" v:tabSpace="42.5197"/>
			<v:textRect cx="12.0472" cy="140.975" width="21.09" height="18.0709"/>
			<path d="M0 140.98 A12.0472 12.0472 0 1 1 24.09 140.98 A12.0472 12.0472 0 0 1 0 140.98 Z" class="st1"/>
			<text x="7.05" y="143.98" class="st2" v:langID="2052"><v:paragraph v:horizAlign="1"/><v:tabList/>49</text>		</g>
		<g id="shape20-4" v:mID="20" v:groupContext="shape" transform="translate(56.5488,-63.9373)">
			<title>圆形.20</title>
			<desc>46</desc>
			<v:userDefs>
				<v:ud v:nameU="visVersion" v:val="VT0(15):26"/>
			</v:userDefs>
			<v:textBlock v:margins="rect(4,4,4,4)" v:tabSpace="42.5197"/>
			<v:textRect cx="12.0472" cy="140.975" width="21.09" height="18.0709"/>
			<path d="M0 140.98 A12.0472 12.0472 0 1 1 24.09 140.98 A12.0472 12.0472 0 0 1 0 140.98 Z" class="st1"/>
			<text x="7.05" y="143.98" class="st2" v:langID="2052"><v:paragraph v:horizAlign="1"/><v:tabList/>46</text>		</g>
		<g id="shape21-7" v:mID="21" v:groupContext="shape" transform="translate(138.045,-63.9373)">
			<title>圆形.21</title>
			<desc>79</desc>
			<v:userDefs>
				<v:ud v:nameU="visVersion" v:val="VT0(15):26"/>
			</v:userDefs>
			<v:textBlock v:margins="rect(4,4,4,4)" v:tabSpace="42.5197"/>
			<v:textRect cx="12.0472" cy="140.975" width="21.09" height="18.0709"/>
			<path d="M0 140.98 A12.0472 12.0472 0 1 1 24.09 140.98 A12.0472 12.0472 0 0 1 0 140.98 Z" class="st1"/>
			<text x="7.05" y="143.98" class="st2" v:langID="2052"><v:paragraph v:horizAlign="1"/><v:tabList/>79</text>		</g>
		<g id="shape22-10" v:mID="22" v:groupContext="shape" transform="translate(104.029,-19.2916)">
			<title>圆形.22</title>
			<desc>64</desc>
			<v:userDefs>
				<v:ud v:nameU="visVersion" v:val="VT0(15):26"/>
			</v:userDefs>
			<v:textBlock v:margins="rect(4,4,4,4)" v:tabSpace="42.5197"/>
			<v:textRect cx="12.0472" cy="140.975" width="21.09" height="18.0709"/>
			<path d="M0 140.98 A12.0472 12.0472 0 1 1 24.09 140.98 A12.0472 12.0472 0 0 1 0 140.98 Z" class="st1"/>
			<text x="7.05" y="143.98" class="st2" v:langID="2052"><v:paragraph v:horizAlign="1"/><v:tabList/>64</text>		</g>
		<g id="shape23-13" v:mID="23" v:groupContext="shape" transform="translate(172.061,-18.5829)">
			<title>圆形.23</title>
			<desc>83</desc>
			<v:userDefs>
				<v:ud v:nameU="visVersion" v:val="VT0(15):26"/>
			</v:userDefs>
			<v:textBlock v:margins="rect(4,4,4,4)" v:tabSpace="42.5197"/>
			<v:textRect cx="12.0472" cy="140.975" width="21.09" height="18.0709"/>
			<path d="M0 140.98 A12.0472 12.0472 0 1 1 24.09 140.98 A12.0472 12.0472 0 0 1 0 140.98 Z" class="st1"/>
			<text x="7.05" y="143.98" class="st2" v:langID="2052"><v:paragraph v:horizAlign="1"/><v:tabList/>83</text>		</g>
		<g id="shape26-16" v:mID="26" v:groupContext="shape" transform="translate(246.639,196.81) rotate(136.638)">
			<title>工作表.26</title>
			<path d="M0 153.02 L35.07 153.02" class="st3"/>
		</g>
		<g id="shape27-19" v:mID="27" v:groupContext="shape" transform="translate(265.28,-24.1594) rotate(44.1926)">
			<title>工作表.27</title>
			<path d="M0 153.02 L35.56 153.02" class="st3"/>
		</g>
		<g id="shape28-22" v:mID="28" v:groupContext="shape" transform="translate(199.537,165.429) rotate(139.828)">
			<title>工作表.28</title>
			<path d="M0 153.02 L31.03 153.02" class="st3"/>
		</g>
		<g id="shape29-25" v:mID="29" v:groupContext="shape" transform="translate(216.577,-68.423) rotate(40.1722)">
			<title>工作表.29</title>
			<path d="M0 153.02 L31.03 153.02" class="st3"/>
		</g>
		<g id="shape30-28" v:mID="30" v:groupContext="shape" transform="translate(191.376,-38.5811)">
			<title>工作表.30</title>
			<desc>1</desc>
			<v:textBlock v:margins="rect(4,4,4,4)" v:tabSpace="42.5197"/>
			<v:textRect cx="5.93307" cy="144.951" width="11.87" height="16.1435"/>
			<rect x="0" y="136.879" width="11.8661" height="16.1435" class="st4"/>
			<text x="4" y="148.55" class="st5" v:langID="2052"><v:paragraph v:horizAlign="1"/><v:tabList/>1</text>		</g>
		<g id="shape33-31" v:mID="33" v:groupContext="shape" transform="translate(125.289,-38.5811)">
			<title>工作表.33</title>
			<desc>1</desc>
			<v:textBlock v:margins="rect(4,4,4,4)" v:tabSpace="42.5197"/>
			<v:textRect cx="5.93307" cy="144.951" width="11.87" height="16.1435"/>
			<rect x="0" y="136.879" width="11.8661" height="16.1435" class="st4"/>
			<text x="4" y="148.55" class="st5" v:langID="2052"><v:paragraph v:horizAlign="1"/><v:tabList/>1</text>		</g>
		<g id="shape34-34" v:mID="34" v:groupContext="shape" transform="translate(77.9898,-71.8882)">
			<title>工作表.34</title>
			<desc>1+1</desc>
			<v:textBlock v:margins="rect(4,4,4,4)" v:tabSpace="42.5197"/>
			<v:textRect cx="19.1959" cy="144.951" width="38.4" height="16.1435"/>
			<rect x="0" y="136.879" width="38.3918" height="16.1435" class="st4"/>
			<text x="9.81" y="148.55" class="st5" v:langID="2052"><v:paragraph v:horizAlign="1"/><v:tabList/>1+1</text>		</g>
		<g id="shape35-37" v:mID="35" v:groupContext="shape" transform="translate(160.722,-81.1008)">
			<title>工作表.35</title>
			<desc>3</desc>
			<v:textBlock v:margins="rect(4,4,4,4)" v:tabSpace="42.5197"/>
			<v:textRect cx="5.93307" cy="144.951" width="11.87" height="16.1435"/>
			<rect x="0" y="136.879" width="11.8661" height="16.1435" class="st4"/>
			<text x="4" y="148.55" class="st5" v:langID="2052"><v:paragraph v:horizAlign="1"/><v:tabList/>3</text>		</g>
		<g id="shape38-40" v:mID="38" v:groupContext="shape" transform="translate(119.356,-118.504)">
			<title>工作表.38</title>
			<desc>5+1</desc>
			<v:textBlock v:margins="rect(4,4,4,4)" v:tabSpace="42.5197"/>
			<v:textRect cx="16.2294" cy="144.951" width="32.46" height="16.1435"/>
			<rect x="0" y="136.879" width="32.4587" height="16.1435" class="st4"/>
			<text x="6.85" y="148.55" class="st5" v:langID="2052"><v:paragraph v:horizAlign="1"/><v:tabList/>5+1</text>		</g>
		<g id="shape39-43" v:mID="39" v:groupContext="shape" transform="translate(18.12,-18.12)">
			<title>圆形.39</title>
			<desc>43</desc>
			<v:userDefs>
				<v:ud v:nameU="visVersion" v:val="VT0(15):26"/>
			</v:userDefs>
			<v:textBlock v:margins="rect(4,4,4,4)" v:tabSpace="42.5197"/>
			<v:textRect cx="12.0472" cy="140.975" width="21.09" height="18.0709"/>
			<path d="M0 140.98 A12.0472 12.0472 0 1 1 24.09 140.98 A12.0472 12.0472 0 0 1 0 140.98 Z" class="st1"/>
			<text x="7.05" y="143.98" class="st2" v:langID="2052"><v:paragraph v:horizAlign="1"/><v:tabList/>43</text>		</g>
		<g id="shape40-46" v:mID="40" v:groupContext="shape" transform="translate(158.789,202.484) rotate(139.828)">
			<title>工作表.40</title>
			<path d="M0 153.02 L39.14 153.02" class="st3"/>
		</g>
		<g id="shape41-49" v:mID="41" v:groupContext="shape" transform="translate(36.5866,-31.6502)">
			<title>工作表.41</title>
			<desc>1</desc>
			<v:textBlock v:margins="rect(4,4,4,4)" v:tabSpace="42.5197"/>
			<v:textRect cx="5.93307" cy="144.951" width="11.87" height="16.1435"/>
			<rect x="0" y="136.879" width="11.8661" height="16.1435" class="st4"/>
			<text x="4" y="148.55" class="st5" v:langID="2052"><v:paragraph v:horizAlign="1"/><v:tabList/>1</text>		</g>
	</g>
</svg>
