<svg height="507" xmlns:xlink="http://www.w3.org/1999/xlink" xmlns="http://www.w3.org/2000/svg" xmlns:ev="http://www.w3.org/2001/xml-events" viewBox="0 0 563 507" width="563"><defs/><g transform="translate(5.5,5.5)" id="page12"><rect y="0" height="497" x="0" fill="#ffffff" width="553"/><g transform="translate(195.250800,115.000000)" id="shape1"><path d="M69.7,38.0L139.5,19.0L69.7,.0L.0,19.0L69.7,38.0z" fill="#ffffff" stroke="#101843" stroke-width="1" fill-rule="nonzero"/><text style="fill:#191919;font-family:微软雅黑;font-size:10.00pt" xml:space="preserve"><tspan y="24.5" x="30.7">hn = 16bits?</tspan></text></g><g transform="translate(205.000500,195.000000)" id="shape2"><path d="M120.0,38.0L120.0,.0L.0,.0L.0,38.0L120.0,38.0z" fill="#ffffff" stroke="#101843" stroke-width="1" fill-rule="nonzero"/><text style="fill:#191919;font-family:微软雅黑;font-size:10.00pt" xml:space="preserve"><tspan y="24.5" x="16.5">expand with 0</tspan></text></g><g transform="translate(370.499500,195.000000)" id="shape3"><path d="M144.0,38.0L144.0,.0L.0,.0L.0,38.0L144.0,38.0z" fill="#ffffff" stroke="#101843" stroke-width="1" fill-rule="nonzero"/><text style="fill:#191919;font-family:微软雅黑;font-size:10.00pt" xml:space="preserve"><tspan y="24.5" x="15.5">expand with hn+1</tspan></text></g><g transform="translate(205.000500,39.000000)" id="shape4"><path d="M33.6,.0L120.0,.0L86.4,38.0L.0,38.0L33.6,.0z" fill="#ffffff" stroke="#101843" stroke-width="1" fill-rule="nonzero"/><text style="fill:#191919;font-family:微软雅黑;font-size:10.00pt" xml:space="preserve"><tspan y="24.5" x="47.0">n=0</tspan></text></g><g transform="translate(265.000500,77.000000)" id="shape5"><path d="M.0,.0L.0,32.0" fill="none" stroke="#191919" stroke-width="1"/><path stroke-linecap="round" d="M3.0,32.0L.0,38.0L-3.0,32.0L3.0,32.0" fill="#191919" stroke-width="1" stroke="#191919"/></g><g transform="translate(265.000500,153.000000)" id="shape6"><path d="M.0,.0L.0,36.0" fill="none" stroke="#191919" stroke-width="1"/><path stroke-linecap="round" d="M3.0,36.0L.0,42.0L-3.0,36.0L3.0,36.0" fill="#191919" stroke-width="1" stroke="#191919"/><rect y="11.4" height="19.0" x="-3.0" fill="#ffffff" width="8.0"/><text style="fill:#191919;font-family:微软雅黑;font-size:10.00pt" xml:space="preserve"><tspan y="26.4" x="-3.0">Y</tspan></text></g><g transform="translate(334.749800,134.000000)" id="shape7"><path d="M.0,.0L107.7,.0L107.7,55.0" fill="none" stroke="#191919" stroke-width="1"/><path stroke-linecap="round" d="M110.7,55.0L107.7,61.0L104.7,55.0L110.7,55.0" fill="#191919" stroke-width="1" stroke="#191919"/><rect y="-9.5" height="19.0" x="49.8" fill="#ffffff" width="11.0"/><text style="fill:#191919;font-family:微软雅黑;font-size:10.00pt" xml:space="preserve"><tspan y="5.5" x="49.8">N</tspan></text></g><g transform="translate(195.249800,345.000000)" id="shape8"><path d="M69.7,38.0L139.5,19.0L69.7,.0L.0,19.0L69.7,38.0z" fill="#ffffff" stroke="#101843" stroke-width="1" fill-rule="nonzero"/><text style="fill:#191919;font-family:微软雅黑;font-size:10.00pt" xml:space="preserve"><tspan y="24.5" x="37.7">inst >= 3?</tspan></text></g><g transform="translate(205.000500,270.000000)" id="shape9"><path d="M120.0,38.0L120.0,.0L.0,.0L.0,38.0L120.0,38.0z" fill="#ffffff" stroke="#101843" stroke-width="1" fill-rule="nonzero"/><text style="fill:#191919;font-family:微软雅黑;font-size:10.00pt" xml:space="preserve"><tspan y="24.5" x="16.5">expand with 0</tspan></text></g><g transform="translate(265.000500,233.000000)" id="shape10"><path d="M.0,.0L.0,31.0" fill="none" stroke="#191919" stroke-width="1"/><path stroke-linecap="round" d="M3.0,31.0L.0,37.0L-3.0,31.0L3.0,31.0" fill="#191919" stroke-width="1" stroke="#191919"/></g><g transform="translate(442.499500,233.000000)" id="shape11"><path d="M.0,.0L.0,14.0L-177.5,14.0L-177.5,31.0" fill="none" stroke="#191919" stroke-width="1"/><path stroke-linecap="round" d="M-174.5,31.0L-177.5,37.0L-180.5,31.0L-174.5,31.0" fill="#191919" stroke-width="1" stroke="#191919"/></g><g transform="translate(265.000500,308.000000)" id="shape12"><path d="M.0,.0L-0.0,31.0" fill="none" stroke="#191919" stroke-width="1"/><path stroke-linecap="round" d="M3.0,31.0L-0.0,37.0L-3.0,31.0L3.0,31.0" fill="#191919" stroke-width="1" stroke="#191919"/></g><g transform="translate(220.999500,420.000000)" id="shape13"><path d="M69.0,38.0C79.5,38.0,88.0,29.5,88.0,19.0L88.0,19.0C88.0,8.5,79.5,.0,69.0,.0L19.0,.0C8.5,.0,.0,8.5,.0,19.0L.0,19.0C.0,29.5,8.5,38.0,19.0,38.0L69.0,38.0z" fill="#ffffff" stroke="#101843" stroke-width="1" fill-rule="nonzero"/><text style="fill:#191919;font-family:微软雅黑;font-size:10.00pt" xml:space="preserve"><tspan y="24.5" x="32.5">End</tspan></text></g><g transform="translate(264.999500,383.000000)" id="shape14"><path d="M.0,.0L.0,31.0" fill="none" stroke="#191919" stroke-width="1"/><path stroke-linecap="round" d="M3.0,31.0L.0,37.0L-3.0,31.0L3.0,31.0" fill="#191919" stroke-width="1" stroke="#191919"/><rect y="7.2" height="19.0" x="-3.0" fill="#ffffff" width="8.0"/><text style="fill:#191919;font-family:微软雅黑;font-size:10.00pt" xml:space="preserve"><tspan y="22.2" x="-3.0">Y</tspan></text></g><g transform="translate(39.500500,195.000000)" id="shape15"><path d="M120.0,38.0L120.0,.0L.0,.0L.0,38.0L120.0,38.0z" fill="#ffffff" stroke="#101843" stroke-width="1" fill-rule="nonzero"/><text style="fill:#191919;font-family:微软雅黑;font-size:10.00pt" xml:space="preserve"><tspan y="24.5" x="46.0">n++</tspan></text></g><g transform="translate(195.249800,364.000000)" id="shape16"><path d="M.0,.0L-95.7,.0L-95.7,-125.0" fill="none" stroke="#191919" stroke-width="1"/><path stroke-linecap="round" d="M-98.7,-125.0L-95.7,-131.0L-92.7,-125.0L-98.7,-125.0" fill="#191919" stroke-width="1" stroke="#191919"/></g><g transform="translate(99.500500,195.000000)" id="shape17"><path d="M.0,.0L.0,-61.0L89.8,-61.0" fill="none" stroke="#191919" stroke-width="1"/><path stroke-linecap="round" d="M89.8,-64.0L95.8,-61.0L89.8,-58.0L89.8,-64.0" fill="#191919" stroke-width="1" stroke="#191919"/></g></g></svg>