<?xml version="1.0" encoding="UTF-8" standalone="no"?>
<!DOCTYPE svg PUBLIC "-//W3C//DTD SVG 1.1//EN" "http://www.w3.org/Graphics/SVG/1.1/DTD/svg11.dtd">
<!-- 由 Microsoft Visio, SVG Export 生成 hackcomarch.svg Page-1 -->
<svg xmlns="http://www.w3.org/2000/svg" xmlns:xlink="http://www.w3.org/1999/xlink" xmlns:ev="http://www.w3.org/2001/xml-events"
		xmlns:v="http://schemas.microsoft.com/visio/2003/SVGExtensions/" width="2.52696in" height="1.74841in"
		viewBox="0 0 181.941 125.886" xml:space="preserve" color-interpolation-filters="sRGB" class="st9">
	<v:documentProperties v:langID="2052" v:metric="true" v:viewMarkup="false">
		<v:userDefs>
			<v:ud v:nameU="msvNoAutoConnect" v:val="VT0(1):26"/>
		</v:userDefs>
	</v:documentProperties>

	<style type="text/css">
	<![CDATA[
		.st1 {fill:#bfbfbf;stroke:#000000;stroke-linecap:round;stroke-linejoin:round;stroke-width:0.24}
		.st2 {fill:#ffffff;stroke:#000000;stroke-linecap:round;stroke-linejoin:round;stroke-width:0.24}
		.st3 {fill:#000000;font-family:Times New Roman;font-size:0.833336em}
		.st4 {font-size:1em}
		.st5 {fill:#d8d8d8}
		.st6 {stroke:none;stroke-linecap:round;stroke-linejoin:round;stroke-width:0.75}
		.st7 {stroke:#164326;stroke-linecap:round;stroke-linejoin:round;stroke-width:0.24}
		.st8 {fill:#ffffff;stroke:none;stroke-linecap:round;stroke-linejoin:round;stroke-width:0.24;visibility:hidden}
		.st9 {fill:none;fill-rule:evenodd;font-size:12px;overflow:visible;stroke-linecap:square;stroke-miterlimit:3}
	]]>
	</style>

	<g v:mID="0" v:index="1" v:groupContext="foregroundPage">
		<title>页-1</title>
		<v:pageProperties v:drawingScale="0.0393701" v:pageScale="0.0393701" v:drawingUnits="24" v:shadowOffsetX="8.50394"
				v:shadowOffsetY="-8.50394"/>
		<g id="shape1-1" v:mID="1" v:groupContext="shape" transform="translate(18.12,-18.12)">
			<title>矩形</title>
			<v:userDefs>
				<v:ud v:nameU="visVersion" v:val="VT0(15):26"/>
			</v:userDefs>
			<rect x="0" y="36.24" width="145.701" height="89.6457" class="st1"/>
		</g>
		<g id="shape2-3" v:mID="2" v:groupContext="shape" transform="translate(25.9153,-33.7106)">
			<title>矩形.2</title>
			<desc>ROM Inst</desc>
			<v:userDefs>
				<v:ud v:nameU="visVersion" v:val="VT0(15):26"/>
			</v:userDefs>
			<v:textBlock v:margins="rect(4,4,4,4)" v:tabSpace="42.5197"/>
			<v:textRect cx="15.5906" cy="96.6534" width="31.19" height="58.4646"/>
			<rect x="0" y="67.4211" width="31.1811" height="58.4646" class="st2"/>
			<text x="4.2" y="93.65" class="st3" v:langID="2052"><v:paragraph v:horizAlign="1"/><v:tabList/>ROM<v:newlineChar/><tspan
						x="8.09" dy="1.2em" class="st4">Inst</tspan></text>		</g>
		<g id="shape3-7" v:mID="3" v:groupContext="shape" transform="translate(209.344,33.7105) rotate(90)">
			<title>梯形</title>
			<desc>CPU</desc>
			<v:userDefs>
				<v:ud v:nameU="visVersion" v:prompt="" v:val="VT0(15):26"/>
			</v:userDefs>
			<v:textBlock v:margins="rect(4,4,4,4)" v:tabSpace="42.5197"/>
			<v:textRect cx="29.2323" cy="118.374" width="58.47" height="15.0236"/>
			<path d="M0 125.89 L58.46 125.89 L52.62 110.86 L5.85 110.86 L0 125.89 Z" class="st2"/>
			<text x="19.51" y="121.37" class="st3" v:langID="2052"><v:paragraph v:horizAlign="1"/><v:tabList/>CPU</text>		</g>
		<g id="group9-10" transform="translate(57.0964,-55.8562)" v:mID="9" v:groupContext="group">
			<v:userDefs>
				<v:ud v:nameU="visVersion" v:val="VT0(15):26"/>
			</v:userDefs>
			<title>一维单向箭头</title>
			<g id="shape10-11" v:mID="10" v:groupContext="shape">
				<title>工作表.10</title>
				<path d="M0 122.34 L22.82 122.34 L22.82 125.89 L26.36 118.8 L22.82 111.71 L22.82 115.26 L0 115.26 L0 122.34 Z"
						class="st5"/>
				<path d="M0 122.34 L22.82 122.34 L22.82 125.89 L26.36 118.8 L22.82 111.71 L22.82 115.26 L0 115.26" class="st6"/>
			</g>
			<g id="shape11-14" v:mID="11" v:groupContext="shape">
				<title>工作表.11</title>
				<path d="M0 122.34 L22.82 122.34 L22.82 125.89 L26.36 118.8 L22.82 111.71 L22.82 115.26 L0 115.26 L0 122.34"
						class="st7"/>
			</g>
			<g id="shape12-17" v:mID="12" v:groupContext="shape" transform="translate(-0.338022,-3.60331)">
				<title>工作表.12</title>
				<rect x="0" y="118.919" width="0.1488" height="6.96661" class="st8"/>
			</g>
		</g>
		<g id="shape13-19" v:mID="13" v:groupContext="shape" transform="translate(124.844,-33.7106)">
			<title>矩形.13</title>
			<desc>RAM Data</desc>
			<v:userDefs>
				<v:ud v:nameU="visVersion" v:val="VT0(15):26"/>
			</v:userDefs>
			<v:textBlock v:margins="rect(4,4,4,4)" v:tabSpace="42.5197"/>
			<v:textRect cx="15.5906" cy="96.6534" width="31.19" height="58.4646"/>
			<rect x="0" y="67.4211" width="31.1811" height="58.4646" class="st2"/>
			<text x="4.2" y="93.65" class="st3" v:langID="2052"><v:paragraph v:horizAlign="1"/><v:tabList/>RAM<v:newlineChar/><tspan
						x="6.15" dy="1.2em" class="st4">Data</tspan></text>		</g>
		<g id="group14-23" transform="translate(98.4822,-68.2298)" v:mID="14" v:groupContext="group">
			<v:userDefs>
				<v:ud v:nameU="visVersion" v:val="VT0(15):26"/>
			</v:userDefs>
			<title>一维单向箭头.14</title>
			<g id="shape15-24" v:mID="15" v:groupContext="shape">
				<title>工作表.15</title>
				<path d="M0 122.34 L22.82 122.34 L22.82 125.89 L26.36 118.8 L22.82 111.71 L22.82 115.26 L0 115.26 L0 122.34 Z"
						class="st5"/>
				<path d="M0 122.34 L22.82 122.34 L22.82 125.89 L26.36 118.8 L22.82 111.71 L22.82 115.26 L0 115.26" class="st6"/>
			</g>
			<g id="shape16-27" v:mID="16" v:groupContext="shape">
				<title>工作表.16</title>
				<path d="M0 122.34 L22.82 122.34 L22.82 125.89 L26.36 118.8 L22.82 111.71 L22.82 115.26 L0 115.26 L0 122.34"
						class="st7"/>
			</g>
			<g id="shape17-30" v:mID="17" v:groupContext="shape" transform="translate(-0.338022,-3.60331)">
				<title>工作表.17</title>
				<rect x="0" y="118.919" width="0.1488" height="6.96661" class="st8"/>
			</g>
		</g>
		<g id="group18-32" transform="translate(124.844,-43.9861) scale(-1,1)" v:mID="18" v:groupContext="group">
			<v:userDefs>
				<v:ud v:nameU="visVersion" v:val="VT0(15):26"/>
			</v:userDefs>
			<title>一维单向箭头.18</title>
			<g id="shape19-33" v:mID="19" v:groupContext="shape">
				<title>工作表.19</title>
				<path d="M0 122.34 L22.82 122.34 L22.82 125.89 L26.36 118.8 L22.82 111.71 L22.82 115.26 L0 115.26 L0 122.34 Z"
						class="st5"/>
				<path d="M0 122.34 L22.82 122.34 L22.82 125.89 L26.36 118.8 L22.82 111.71 L22.82 115.26 L0 115.26" class="st6"/>
			</g>
			<g id="shape20-36" v:mID="20" v:groupContext="shape">
				<title>工作表.20</title>
				<path d="M0 122.34 L22.82 122.34 L22.82 125.89 L26.36 118.8 L22.82 111.71 L22.82 115.26 L0 115.26 L0 122.34"
						class="st7"/>
			</g>
			<g id="shape21-39" v:mID="21" v:groupContext="shape" transform="translate(-0.338022,-3.60331)">
				<title>工作表.21</title>
				<rect x="0" y="118.919" width="0.1488" height="6.96661" class="st8"/>
			</g>
		</g>
	</g>
</svg>
