<?xml version="1.0" encoding="UTF-8" standalone="no"?>
<!DOCTYPE svg PUBLIC "-//W3C//DTD SVG 1.1//EN" "http://www.w3.org/Graphics/SVG/1.1/DTD/svg11.dtd">
<!-- 由 Microsoft Visio, SVG Export 生成 notsignal.svg Page-1 -->
<svg xmlns="http://www.w3.org/2000/svg" xmlns:xlink="http://www.w3.org/1999/xlink" xmlns:ev="http://www.w3.org/2001/xml-events"
		xmlns:v="http://schemas.microsoft.com/visio/2003/SVGExtensions/" width="6.46051in" height="3.61278in"
		viewBox="0 0 465.156 260.12" xml:space="preserve" color-interpolation-filters="sRGB" class="st6">
	<v:documentProperties v:langID="2052" v:metric="true" v:viewMarkup="false">
		<v:userDefs>
			<v:ud v:nameU="msvNoAutoConnect" v:val="VT0(1):26"/>
		</v:userDefs>
	</v:documentProperties>

	<style type="text/css">
	<![CDATA[
		.st1 {stroke:#b7dde8;stroke-linecap:butt;stroke-width:0.75}
		.st2 {stroke:#7e649e;stroke-linecap:round;stroke-linejoin:round;stroke-width:0.75}
		.st3 {fill:none;stroke:none;stroke-linecap:round;stroke-linejoin:round;stroke-width:0.75}
		.st4 {fill:#000000;font-family:Times New Roman;font-size:1.00001em}
		.st5 {stroke:#000000;stroke-linecap:round;stroke-linejoin:round;stroke-width:0.75}
		.st6 {fill:none;fill-rule:evenodd;font-size:12px;overflow:visible;stroke-linecap:square;stroke-miterlimit:3}
	]]>
	</style>

	<g v:mID="0" v:index="1" v:groupContext="foregroundPage">
		<title>页-1</title>
		<v:pageProperties v:drawingScale="0.0393701" v:pageScale="0.0393701" v:drawingUnits="24" v:shadowOffsetX="8.50394"
				v:shadowOffsetY="-8.50394"/>
		<g id="shape1-1" v:mID="1" v:groupContext="shape" transform="translate(72.2333,-211.131)">
			<title>工作表.1</title>
			<path d="M0 260.12 L31.18 260.12" class="st1"/>
		</g>
		<g id="shape2-4" v:mID="2" v:groupContext="shape" transform="translate(363.534,48.9892) rotate(90)">
			<title>工作表.2</title>
			<path d="M0 260.12 L35.43 260.12" class="st1"/>
		</g>
		<g id="shape3-7" v:mID="3" v:groupContext="shape" transform="translate(103.414,-175.698)">
			<title>工作表.3</title>
			<path d="M0 260.12 L31.18 260.12" class="st1"/>
		</g>
		<g id="shape8-10" v:mID="8" v:groupContext="shape" transform="translate(394.716,48.9892) rotate(90)">
			<title>工作表.8</title>
			<path d="M0 260.12 L35.43 260.12" class="st1"/>
		</g>
		<g id="shape10-13" v:mID="10" v:groupContext="shape" transform="translate(134.595,-211.131)">
			<title>工作表.10</title>
			<path d="M0 260.12 L31.18 260.12" class="st1"/>
		</g>
		<g id="shape11-16" v:mID="11" v:groupContext="shape" transform="translate(425.897,48.9892) rotate(90)">
			<title>工作表.11</title>
			<path d="M0 260.12 L35.43 260.12" class="st1"/>
		</g>
		<g id="shape12-19" v:mID="12" v:groupContext="shape" transform="translate(165.777,-175.698)">
			<title>工作表.12</title>
			<path d="M0 260.12 L31.18 260.12" class="st1"/>
		</g>
		<g id="shape13-22" v:mID="13" v:groupContext="shape" transform="translate(457.078,48.9892) rotate(90)">
			<title>工作表.13</title>
			<path d="M0 260.12 L35.43 260.12" class="st1"/>
		</g>
		<g id="shape14-25" v:mID="14" v:groupContext="shape" transform="translate(196.958,-211.131)">
			<title>工作表.14</title>
			<path d="M0 260.12 L31.18 260.12" class="st1"/>
		</g>
		<g id="shape15-28" v:mID="15" v:groupContext="shape" transform="translate(488.259,48.9892) rotate(90)">
			<title>工作表.15</title>
			<path d="M0 260.12 L35.43 260.12" class="st1"/>
		</g>
		<g id="shape16-31" v:mID="16" v:groupContext="shape" transform="translate(228.139,-175.698)">
			<title>工作表.16</title>
			<path d="M0 260.12 L31.18 260.12" class="st1"/>
		</g>
		<g id="shape17-34" v:mID="17" v:groupContext="shape" transform="translate(519.44,48.9892) rotate(90)">
			<title>工作表.17</title>
			<path d="M0 260.12 L35.43 260.12" class="st1"/>
		</g>
		<g id="shape18-37" v:mID="18" v:groupContext="shape" transform="translate(259.32,-211.131)">
			<title>工作表.18</title>
			<path d="M0 260.12 L31.18 260.12" class="st1"/>
		</g>
		<g id="shape19-40" v:mID="19" v:groupContext="shape" transform="translate(550.621,48.9892) rotate(90)">
			<title>工作表.19</title>
			<path d="M0 260.12 L35.43 260.12" class="st1"/>
		</g>
		<g id="shape20-43" v:mID="20" v:groupContext="shape" transform="translate(290.501,-175.698)">
			<title>工作表.20</title>
			<path d="M0 260.12 L31.18 260.12" class="st1"/>
		</g>
		<g id="shape21-46" v:mID="21" v:groupContext="shape" transform="translate(581.802,48.9892) rotate(90)">
			<title>工作表.21</title>
			<path d="M0 260.12 L35.43 260.12" class="st1"/>
		</g>
		<g id="shape22-49" v:mID="22" v:groupContext="shape" transform="translate(363.534,18.375) rotate(90)">
			<title>工作表.22</title>
			<path d="M0 260.12 L223.37 260.12" class="st2"/>
		</g>
		<g id="shape23-52" v:mID="23" v:groupContext="shape" transform="translate(425.908,18.375) rotate(90)">
			<title>工作表.23</title>
			<path d="M0 260.12 L223.37 260.12" class="st2"/>
		</g>
		<g id="shape24-55" v:mID="24" v:groupContext="shape" transform="translate(488.282,18.375) rotate(90)">
			<title>工作表.24</title>
			<path d="M0 260.12 L223.37 260.12" class="st2"/>
		</g>
		<g id="shape25-58" v:mID="25" v:groupContext="shape" transform="translate(550.655,18.375) rotate(90)">
			<title>工作表.25</title>
			<path d="M0 260.12 L223.37 260.12" class="st2"/>
		</g>
		<g id="shape27-61" v:mID="27" v:groupContext="shape" transform="translate(321.682,-211.131)">
			<title>工作表.27</title>
			<path d="M0 260.12 L31.18 260.12" class="st1"/>
		</g>
		<g id="shape28-64" v:mID="28" v:groupContext="shape" transform="translate(612.983,48.9892) rotate(90)">
			<title>工作表.28</title>
			<path d="M0 260.12 L35.43 260.12" class="st1"/>
		</g>
		<g id="shape29-67" v:mID="29" v:groupContext="shape" transform="translate(352.863,-175.698)">
			<title>工作表.29</title>
			<path d="M0 260.12 L31.18 260.12" class="st1"/>
		</g>
		<g id="shape30-70" v:mID="30" v:groupContext="shape" transform="translate(644.164,48.9892) rotate(90)">
			<title>工作表.30</title>
			<path d="M0 260.12 L35.43 260.12" class="st1"/>
		</g>
		<g id="shape31-73" v:mID="31" v:groupContext="shape" transform="translate(384.044,-211.131)">
			<title>工作表.31</title>
			<path d="M0 260.12 L31.18 260.12" class="st1"/>
		</g>
		<g id="shape32-76" v:mID="32" v:groupContext="shape" transform="translate(675.345,48.9892) rotate(90)">
			<title>工作表.32</title>
			<path d="M0 260.12 L35.43 260.12" class="st1"/>
		</g>
		<g id="shape33-79" v:mID="33" v:groupContext="shape" transform="translate(415.225,-175.698)">
			<title>工作表.33</title>
			<path d="M0 260.12 L31.18 260.12" class="st1"/>
		</g>
		<g id="shape34-82" v:mID="34" v:groupContext="shape" transform="translate(706.527,48.9892) rotate(90)">
			<title>工作表.34</title>
			<path d="M0 260.12 L35.43 260.12" class="st1"/>
		</g>
		<g id="shape35-85" v:mID="35" v:groupContext="shape" transform="translate(613.029,18.375) rotate(90)">
			<title>工作表.35</title>
			<path d="M0 260.12 L223.37 260.12" class="st2"/>
		</g>
		<g id="shape36-88" v:mID="36" v:groupContext="shape" transform="translate(675.402,18.375) rotate(90)">
			<title>工作表.36</title>
			<path d="M0 260.12 L223.37 260.12" class="st2"/>
		</g>
		<g id="shape37-91" v:mID="37" v:groupContext="shape" transform="translate(18.375,-182.784)">
			<title>工作表.37</title>
			<desc>Clock</desc>
			<v:textBlock v:margins="rect(4,4,4,4)" v:tabSpace="42.5197"/>
			<v:textRect cx="20.855" cy="249.45" width="41.71" height="21.3398"/>
			<rect x="0" y="238.78" width="41.7099" height="21.3398" class="st3"/>
			<text x="6.52" y="253.05" class="st4" v:langID="2052"><v:paragraph v:horizAlign="1"/><v:tabList/>Clock</text>		</g>
		<g id="shape39-94" v:mID="39" v:groupContext="shape" transform="translate(18.375,-118.925)">
			<title>工作表.39</title>
			<desc>Time</desc>
			<v:textBlock v:margins="rect(4,4,4,4)" v:tabSpace="42.5197"/>
			<v:textRect cx="20.855" cy="249.45" width="41.71" height="21.3398"/>
			<rect x="0" y="238.78" width="41.7099" height="21.3398" class="st3"/>
			<text x="8.19" y="253.05" class="st4" v:langID="2052"><v:paragraph v:horizAlign="1"/><v:tabList/>Time</text>		</g>
		<g id="shape40-97" v:mID="40" v:groupContext="shape" transform="translate(18.375,-67.9014)">
			<title>工作表.40</title>
			<desc>In</desc>
			<v:textBlock v:margins="rect(4,4,4,4)" v:tabSpace="42.5197"/>
			<v:textRect cx="16.002" cy="249.45" width="32.01" height="21.3398"/>
			<rect x="0" y="238.78" width="32.0041" height="21.3398" class="st3"/>
			<text x="11" y="253.05" class="st4" v:langID="2052"><v:paragraph v:horizAlign="1"/><v:tabList/>In</text>		</g>
		<g id="shape41-100" v:mID="41" v:groupContext="shape" transform="translate(18.375,-35.3829)">
			<title>工作表.41</title>
			<desc>out</desc>
			<v:textBlock v:margins="rect(4,4,4,4)" v:tabSpace="42.5197"/>
			<v:textRect cx="16.002" cy="249.45" width="32.01" height="21.3398"/>
			<rect x="0" y="238.78" width="32.0041" height="21.3398" class="st3"/>
			<text x="8.33" y="253.05" class="st4" v:langID="2052"><v:paragraph v:horizAlign="1"/><v:tabList/>out</text>		</g>
		<g id="shape42-103" v:mID="42" v:groupContext="shape" transform="translate(112.12,-115.422)">
			<title>工作表.42</title>
			<desc>1</desc>
			<v:textBlock v:margins="rect(4,4,4,4)" v:tabSpace="42.5197"/>
			<v:textRect cx="20.855" cy="249.45" width="41.71" height="21.3398"/>
			<rect x="0" y="238.78" width="41.7099" height="21.3398" class="st3"/>
			<text x="17.85" y="253.05" class="st4" v:langID="2052"><v:paragraph v:horizAlign="1"/><v:tabList/>1</text>		</g>
		<g id="shape43-106" v:mID="43" v:groupContext="shape" transform="translate(175.698,-115.422)">
			<title>工作表.43</title>
			<desc>2</desc>
			<v:textBlock v:margins="rect(4,4,4,4)" v:tabSpace="42.5197"/>
			<v:textRect cx="20.855" cy="249.45" width="41.71" height="21.3398"/>
			<rect x="0" y="238.78" width="41.7099" height="21.3398" class="st3"/>
			<text x="17.85" y="253.05" class="st4" v:langID="2052"><v:paragraph v:horizAlign="1"/><v:tabList/>2</text>		</g>
		<g id="shape44-109" v:mID="44" v:groupContext="shape" transform="translate(239.275,-115.422)">
			<title>工作表.44</title>
			<desc>3</desc>
			<v:textBlock v:margins="rect(4,4,4,4)" v:tabSpace="42.5197"/>
			<v:textRect cx="20.855" cy="249.45" width="41.71" height="21.3398"/>
			<rect x="0" y="238.78" width="41.7099" height="21.3398" class="st3"/>
			<text x="17.85" y="253.05" class="st4" v:langID="2052"><v:paragraph v:horizAlign="1"/><v:tabList/>3</text>		</g>
		<g id="shape45-112" v:mID="45" v:groupContext="shape" transform="translate(302.852,-115.422)">
			<title>工作表.45</title>
			<desc>4</desc>
			<v:textBlock v:margins="rect(4,4,4,4)" v:tabSpace="42.5197"/>
			<v:textRect cx="20.855" cy="249.45" width="41.71" height="21.3398"/>
			<rect x="0" y="238.78" width="41.7099" height="21.3398" class="st3"/>
			<text x="17.85" y="253.05" class="st4" v:langID="2052"><v:paragraph v:horizAlign="1"/><v:tabList/>4</text>		</g>
		<g id="shape46-115" v:mID="46" v:groupContext="shape" transform="translate(366.429,-115.422)">
			<title>工作表.46</title>
			<desc>5</desc>
			<v:textBlock v:margins="rect(4,4,4,4)" v:tabSpace="42.5197"/>
			<v:textRect cx="20.855" cy="249.45" width="41.71" height="21.3398"/>
			<rect x="0" y="238.78" width="41.7099" height="21.3398" class="st3"/>
			<text x="17.85" y="253.05" class="st4" v:langID="2052"><v:paragraph v:horizAlign="1"/><v:tabList/>5</text>		</g>
		<g id="shape47-118" v:mID="47" v:groupContext="shape" transform="translate(61.2996,-82.0746)">
			<title>工作表.47</title>
			<desc>1</desc>
			<v:textBlock v:margins="rect(4,4,4,4)" v:tabSpace="42.5197"/>
			<v:textRect cx="20.855" cy="249.45" width="41.71" height="21.3398"/>
			<rect x="0" y="238.78" width="41.7099" height="21.3398" class="st3"/>
			<text x="17.85" y="253.05" class="st4" v:langID="2052"><v:paragraph v:horizAlign="1"/><v:tabList/>1</text>		</g>
		<g id="shape48-121" v:mID="48" v:groupContext="shape" transform="translate(61.2996,-59.3974)">
			<title>工作表.48</title>
			<desc>0</desc>
			<v:textBlock v:margins="rect(4,4,4,4)" v:tabSpace="42.5197"/>
			<v:textRect cx="20.855" cy="249.45" width="41.71" height="21.3398"/>
			<rect x="0" y="238.78" width="41.7099" height="21.3398" class="st3"/>
			<text x="17.85" y="253.05" class="st4" v:langID="2052"><v:paragraph v:horizAlign="1"/><v:tabList/>0</text>		</g>
		<g id="shape90-124" v:mID="90" v:groupContext="shape" transform="translate(61.2996,-41.0522)">
			<title>工作表.90</title>
			<desc>1</desc>
			<v:textBlock v:margins="rect(4,4,4,4)" v:tabSpace="42.5197"/>
			<v:textRect cx="20.855" cy="249.45" width="41.71" height="21.3398"/>
			<rect x="0" y="238.78" width="41.7099" height="21.3398" class="st3"/>
			<text x="17.85" y="253.05" class="st4" v:langID="2052"><v:paragraph v:horizAlign="1"/><v:tabList/>1</text>		</g>
		<g id="shape91-127" v:mID="91" v:groupContext="shape" transform="translate(61.2996,-18.375)">
			<title>工作表.91</title>
			<desc>0</desc>
			<v:textBlock v:margins="rect(4,4,4,4)" v:tabSpace="42.5197"/>
			<v:textRect cx="20.855" cy="249.45" width="41.71" height="21.3398"/>
			<rect x="0" y="238.78" width="41.7099" height="21.3398" class="st3"/>
			<text x="17.85" y="253.05" class="st4" v:langID="2052"><v:paragraph v:horizAlign="1"/><v:tabList/>0</text>		</g>
		<g id="shape92-130" v:mID="92" v:groupContext="shape" transform="translate(117.588,-94.9104)">
			<title>工作表.92</title>
			<path d="M0 260.12 L48.2 260.12" class="st5"/>
		</g>
		<g id="shape98-133" v:mID="98" v:groupContext="shape" transform="translate(-133.39,88.7523) rotate(-65.556)">
			<title>工作表.98</title>
			<path d="M0 260.12 A32.0739 11.3793 160.76 0 1 34.25 260.12" class="st5"/>
		</g>
		<g id="shape100-136" v:mID="100" v:groupContext="shape" transform="translate(117.588,-26.8789)">
			<title>工作表.100</title>
			<path d="M0 260.12 L48.2 260.12" class="st5"/>
		</g>
		<g id="shape104-139" v:mID="104" v:groupContext="shape" transform="translate(-98.8454,377.53) rotate(-123.69)">
			<title>工作表.104</title>
			<path d="M-0 260.12 A21.2598 14.1732 33.69 0 1 25.55 260.12" class="st5"/>
		</g>
		<g id="shape105-142" v:mID="105" v:groupContext="shape" transform="translate(165.788,-69.3986)">
			<title>工作表.105</title>
			<path d="M0 260.12 L124.71 260.12" class="st5"/>
		</g>
		<g id="shape106-145" v:mID="106" v:groupContext="shape" transform="translate(165.788,-51.6513)">
			<title>工作表.106</title>
			<path d="M0 260.12 L124.71 260.12" class="st5"/>
		</g>
		<g id="shape108-148" v:mID="108" v:groupContext="shape" transform="translate(290.535,-94.5447)">
			<title>工作表.108</title>
			<path d="M0 260.12 L62.37 260.12" class="st5"/>
		</g>
		<g id="shape109-151" v:mID="109" v:groupContext="shape" transform="translate(290.535,-30.0793)">
			<title>工作表.109</title>
			<path d="M0 260.12 L62.37 260.12" class="st5"/>
		</g>
	</g>
</svg>
