<?xml version="1.0" encoding="UTF-8" standalone="no"?>
<!DOCTYPE svg PUBLIC "-//W3C//DTD SVG 1.1//EN" "http://www.w3.org/Graphics/SVG/1.1/DTD/svg11.dtd">
<!-- 由 Microsoft Visio, SVG Export 生成 xor.svg Page-1 -->
<svg xmlns="http://www.w3.org/2000/svg" xmlns:xlink="http://www.w3.org/1999/xlink" xmlns:ev="http://www.w3.org/2001/xml-events"
		xmlns:v="http://schemas.microsoft.com/visio/2003/SVGExtensions/" width="3.0427in" height="1.98986in"
		viewBox="0 0 219.075 143.27" xml:space="preserve" color-interpolation-filters="sRGB" class="st5">
	<v:documentProperties v:langID="2052" v:metric="true" v:viewMarkup="false">
		<v:userDefs>
			<v:ud v:nameU="msvNoAutoConnect" v:val="VT0(1):26"/>
		</v:userDefs>
	</v:documentProperties>

	<style type="text/css">
	<![CDATA[
		.st1 {stroke:#000000;stroke-linecap:round;stroke-linejoin:round;stroke-width:0.24}
		.st2 {fill:#ffffff;stroke:#000000;stroke-linecap:round;stroke-linejoin:round;stroke-width:0.24}
		.st3 {fill:#000000;font-family:Times New Roman;font-size:0.499992em}
		.st4 {stroke:#000000;stroke-linecap:round;stroke-linejoin:round;stroke-width:0.25}
		.st5 {fill:none;fill-rule:evenodd;font-size:12px;overflow:visible;stroke-linecap:square;stroke-miterlimit:3}
	]]>
	</style>

	<g v:mID="0" v:index="1" v:groupContext="foregroundPage">
		<title>页-1</title>
		<v:pageProperties v:drawingScale="0.0393701" v:pageScale="0.0393701" v:drawingUnits="24" v:shadowOffsetX="8.50394"
				v:shadowOffsetY="-8.50394"/>
		<v:layer v:name="电气" v:index="0"/>
		<v:layer v:name="连接线" v:index="1"/>
		<g id="group1-1" transform="translate(111.663,-101.539)" v:mID="1" v:groupContext="group" v:layerMember="0">
			<v:custProps>
				<v:cp v:nameU="Input" v:lbl="输入数目" v:type="1" v:format="2;3;4;5" v:sortKey="2" v:langID="2052" v:val="VT4(2)"/>
				<v:cp v:nameU="Type" v:lbl="门类型" v:type="1" v:format="OR;AND;NOR;NAND;XOR;XNOR" v:sortKey="1" v:langID="2052"
						v:val="VT4(AND)"/>
				<v:cp v:nameU="Out" v:lbl="输出数目" v:type="1" v:format="1;2;3" v:sortKey="3" v:langID="2052" v:val="VT4(1)"/>
			</v:custProps>
			<v:userDefs>
				<v:ud v:nameU="SubType" v:val="VT0(1):26"/>
				<v:ud v:nameU="Margin" v:val="VT0(0.059055118110236):24"/>
				<v:ud v:nameU="LimitHeight" v:val="VT0(0):26"/>
				<v:ud v:nameU="visVersion" v:val="VT0(15):26"/>
				<v:ud v:nameU="visDescription" v:val="VT4(表示各种形式的逻辑门。)"/>
			</v:userDefs>
			<title>逻辑门 2</title>
			<g id="shape2-2" v:mID="2" v:groupContext="shape" v:layerMember="0" transform="translate(0,-4.25197)">
				<title>工作表.2</title>
				<path d="M0 134.77 L17.01 134.77" class="st1"/>
				<path d="M0 143.27 L17.01 143.27" class="st1"/>
				<path d="M34.02 139.02 L17.01 139.02" class="st1"/>
			</g>
			<g id="shape3-7" v:mID="3" v:groupContext="shape" v:layerMember="0" transform="translate(5.95276,0)">
				<title>工作表.3</title>
				<v:userDefs>
					<v:ud v:nameU="X" v:val="VT0(0.029527559055118):24"/>
				</v:userDefs>
				<path d="M22.11 134.77 A22.9017 14.031 0 0 1 6.63 143.27 L0 143.27 A32.8126 20.103 -180 0 0 0 126.26 L6.63 126.26
							 A22.5949 13.8431 0 0 1 22.11 134.77 Z" class="st2"/>
			</g>
			<g id="shape4-9" v:mID="4" v:groupContext="shape" v:layerMember="0" transform="translate(0,2.83465)">
				<title>工作表.4</title>
			</g>
			<g id="shape5-11" v:mID="5" v:groupContext="shape" v:layerMember="0" transform="translate(23.0309,-2.13696)">
				<title>工作表.5</title>
			</g>
			<g id="shape6-13" v:mID="6" v:groupContext="shape" v:layerMember="0" transform="translate(5.95276,0)">
				<title>工作表.6</title>
				<path d="M13.61 143.27 L0 143.27 L0 126.26 L13.61 126.26 A8.50394 8.50394 0 0 1 13.61 143.27 Z" class="st2"/>
			</g>
		</g>
		<g id="group7-15" transform="translate(67.7263,-81.3417)" v:mID="7" v:groupContext="group" v:layerMember="0">
			<v:userDefs>
				<v:ud v:nameU="Form" v:val="VT0(0):26"/>
				<v:ud v:nameU="visDescription" v:val="VT4(表示反相器。)"/>
				<v:ud v:nameU="visVersion" v:val="VT0(15):26"/>
			</v:userDefs>
			<title>反相器</title>
			<g id="shape8-16" v:mID="8" v:groupContext="shape" v:layerMember="0" transform="translate(100.777,28.462) rotate(45)">
				<title>工作表.8</title>
			</g>
			<g id="shape9-18" v:mID="9" v:groupContext="shape" v:layerMember="0">
				<title>工作表.9</title>
				<desc>1</desc>
				<v:textBlock v:margins="rect(1,1,1,1)" v:tabSpace="42.5197"/>
				<v:textRect cx="7.08661" cy="132.64" width="8.01" height="9.20349"/>
				<path d="M14.17 136.18 A1.06299 1.06299 -180 0 0 16.3 136.18 A1.06299 1.06299 -180 0 0 14.17 136.18 ZM0 129.1 L14.17
							 136.18 L0 143.27 L0 129.1 Z" class="st2"/>
			</g>
		</g>
		<g id="shape10-20" v:mID="10" v:groupContext="shape" v:layerMember="0" transform="translate(18.12,-112.523)">
			<title>输入/输出端口</title>
			<desc>a</desc>
			<v:userDefs>
				<v:ud v:nameU="Form" v:val="VT0(0):26"/>
				<v:ud v:nameU="visVersion" v:val="VT0(15):26"/>
				<v:ud v:nameU="visDescription" v:val="VT4(单向或双向输入/输出端口。 )"/>
			</v:userDefs>
			<v:textBlock v:margins="rect(1,1,1,1)" v:tabSpace="42.5197"/>
			<v:textRect cx="7.08661" cy="135.125" width="6.17" height="9.20349"/>
			<path d="M0 141.5 L0 139.73 L10.63 139.73 L14.17 141.5 L10.63 143.27 L0 143.27 L0 141.5 Z" class="st2"/>
			<text x="5.76" y="136.92" class="st3" v:langID="2052"><v:paragraph v:horizAlign="1"/><v:tabList/>a</text>		</g>
		<g id="shape15-23" v:mID="15" v:groupContext="shape" v:layerMember="0" transform="translate(18.12,-29.6094)">
			<title>输入/输出端口.15</title>
			<desc>b</desc>
			<v:userDefs>
				<v:ud v:nameU="Form" v:val="VT0(0):26"/>
				<v:ud v:nameU="visVersion" v:val="VT0(15):26"/>
				<v:ud v:nameU="visDescription" v:val="VT4(单向或双向输入/输出端口。 )"/>
			</v:userDefs>
			<v:textBlock v:margins="rect(1,1,1,1)" v:tabSpace="42.5197"/>
			<v:textRect cx="7.08661" cy="135.125" width="6.51" height="9.20349"/>
			<path d="M0 141.5 L0 139.73 L10.63 139.73 L14.17 141.5 L10.63 143.27 L0 143.27 L0 141.5 Z" class="st2"/>
			<text x="5.59" y="136.92" class="st3" v:langID="2052"><v:paragraph v:horizAlign="1"/><v:tabList/>b</text>		</g>
		<g id="group16-26" transform="translate(67.7263,-50.1606)" v:mID="16" v:groupContext="group" v:layerMember="0">
			<v:userDefs>
				<v:ud v:nameU="Form" v:val="VT0(0):26"/>
				<v:ud v:nameU="visDescription" v:val="VT4(表示反相器。)"/>
				<v:ud v:nameU="visVersion" v:val="VT0(15):26"/>
			</v:userDefs>
			<title>反相器.16</title>
			<g id="shape17-27" v:mID="17" v:groupContext="shape" v:layerMember="0" transform="translate(100.777,28.462) rotate(45)">
				<title>工作表.17</title>
			</g>
			<g id="shape18-29" v:mID="18" v:groupContext="shape" v:layerMember="0">
				<title>工作表.18</title>
				<desc>1</desc>
				<v:textBlock v:margins="rect(1,1,1,1)" v:tabSpace="42.5197"/>
				<v:textRect cx="7.08661" cy="132.64" width="8.01" height="9.20349"/>
				<path d="M14.17 136.18 A1.06299 1.06299 -180 0 0 16.3 136.18 A1.06299 1.06299 -180 0 0 14.17 136.18 ZM0 129.1 L14.17
							 136.18 L0 143.27 L0 129.1 Z" class="st2"/>
			</g>
		</g>
		<g id="shape20-31" v:mID="20" v:groupContext="shape" transform="translate(32.2932,-114.294)">
			<title>工作表.20</title>
			<path d="M0 143.27 L79.37 143.27" class="st4"/>
		</g>
		<g id="shape22-34" v:mID="22" v:groupContext="shape" transform="translate(-40.3642,13.1066) rotate(-59.4067)">
			<title>工作表.22</title>
			<path d="M0 143.27 L56.39 143.27" class="st4"/>
		</g>
		<g id="shape24-37" v:mID="24" v:groupContext="shape" v:layerMember="1" transform="translate(32.2932,-31.3811)">
			<title>动态连接线.24</title>
			<path d="M0 143.27 L10.63 143.27 L10.63 117.4 L35.43 117.4" class="st4"/>
		</g>
		<g id="shape25-40" v:mID="25" v:groupContext="shape" v:layerMember="1" transform="translate(32.2932,-114.294)">
			<title>动态连接线</title>
			<path d="M0 143.27 L10.63 143.27 L10.63 169.14 L35.43 169.14" class="st4"/>
		</g>
		<g id="group26-43" transform="translate(111.663,-27.2)" v:mID="26" v:groupContext="group" v:layerMember="0">
			<v:custProps>
				<v:cp v:nameU="Input" v:lbl="输入数目" v:type="1" v:format="2;3;4;5" v:sortKey="2" v:langID="2052" v:val="VT4(2)"/>
				<v:cp v:nameU="Type" v:lbl="门类型" v:type="1" v:format="OR;AND;NOR;NAND;XOR;XNOR" v:sortKey="1" v:langID="2052"
						v:val="VT4(AND)"/>
				<v:cp v:nameU="Out" v:lbl="输出数目" v:type="1" v:format="1;2;3" v:sortKey="3" v:langID="2052" v:val="VT4(1)"/>
			</v:custProps>
			<v:userDefs>
				<v:ud v:nameU="SubType" v:val="VT0(1):26"/>
				<v:ud v:nameU="Margin" v:val="VT0(0.059055118110236):24"/>
				<v:ud v:nameU="LimitHeight" v:val="VT0(0):26"/>
				<v:ud v:nameU="visVersion" v:val="VT0(15):26"/>
				<v:ud v:nameU="visDescription" v:val="VT4(表示各种形式的逻辑门。)"/>
			</v:userDefs>
			<title>逻辑门 2.26</title>
			<g id="shape27-44" v:mID="27" v:groupContext="shape" v:layerMember="0" transform="translate(0,-4.25197)">
				<title>工作表.27</title>
				<path d="M0 134.77 L17.01 134.77" class="st1"/>
				<path d="M0 143.27 L17.01 143.27" class="st1"/>
				<path d="M34.02 139.02 L17.01 139.02" class="st1"/>
			</g>
			<g id="shape28-49" v:mID="28" v:groupContext="shape" v:layerMember="0" transform="translate(5.95276,0)">
				<title>工作表.28</title>
				<v:userDefs>
					<v:ud v:nameU="X" v:val="VT0(0.029527559055118):24"/>
				</v:userDefs>
				<path d="M22.11 134.77 A22.9017 14.031 0 0 1 6.63 143.27 L0 143.27 A32.8126 20.103 -180 0 0 0 126.26 L6.63 126.26
							 A22.5949 13.8431 0 0 1 22.11 134.77 Z" class="st2"/>
			</g>
			<g id="shape29-51" v:mID="29" v:groupContext="shape" v:layerMember="0" transform="translate(0,2.83465)">
				<title>工作表.29</title>
			</g>
			<g id="shape30-53" v:mID="30" v:groupContext="shape" v:layerMember="0" transform="translate(23.0309,-2.13696)">
				<title>工作表.30</title>
			</g>
			<g id="shape31-55" v:mID="31" v:groupContext="shape" v:layerMember="0" transform="translate(5.95276,0)">
				<title>工作表.31</title>
				<path d="M13.61 143.27 L0 143.27 L0 126.26 L13.61 126.26 A8.50394 8.50394 0 0 1 13.61 143.27 Z" class="st2"/>
			</g>
		</g>
		<g id="shape32-57" v:mID="32" v:groupContext="shape" v:layerMember="1" transform="translate(32.2932,-24.3299)">
			<title>动态连接线.32</title>
			<path d="M0 136.22 L10.63 136.22 L10.63 136.15 L79.37 136.15" class="st4"/>
		</g>
		<g id="shape34-60" v:mID="34" v:groupContext="shape" transform="translate(206.243,-18.1534) rotate(59.37)">
			<title>工作表.34</title>
			<path d="M0 143.27 L56.33 143.27" class="st4"/>
		</g>
		<g id="group35-63" transform="translate(166.939,-64.3339)" v:mID="35" v:groupContext="group" v:layerMember="0">
			<v:custProps>
				<v:cp v:nameU="Input" v:lbl="输入数目" v:type="1" v:format="2;3;4;5" v:sortKey="2" v:langID="2052" v:val="VT4(2)"/>
				<v:cp v:nameU="Type" v:lbl="门类型" v:type="1" v:format="OR;AND;NOR;NAND;XOR;XNOR" v:sortKey="1" v:langID="2052"
						v:val="VT4(AND)"/>
				<v:cp v:nameU="Out" v:lbl="输出数目" v:type="1" v:format="1;2;3" v:sortKey="3" v:langID="2052" v:val="VT4(1)"/>
				<v:cp v:nameU="Type" v:lbl="" v:prompt="" v:type="0" v:format="" v:sortKey="" v:invis="false" v:ask="false"
						v:langID="1033" v:cal="0" v:val="VT4(OR)"/>
			</v:custProps>
			<v:userDefs>
				<v:ud v:nameU="SubType" v:val="VT0(1):26"/>
				<v:ud v:nameU="Margin" v:val="VT0(0.059055118110236):24"/>
				<v:ud v:nameU="LimitHeight" v:val="VT0(0):26"/>
				<v:ud v:nameU="visVersion" v:val="VT0(15):26"/>
				<v:ud v:nameU="visDescription" v:val="VT4(表示各种形式的逻辑门。)"/>
				<v:ud v:nameU="SubType" v:prompt="" v:val="VT0(0):26"/>
			</v:userDefs>
			<title>逻辑门 2.35</title>
			<g id="shape36-64" v:mID="36" v:groupContext="shape" v:layerMember="0" transform="translate(0,-4.25197)">
				<title>工作表.36</title>
				<path d="M0 134.77 L17.01 134.77" class="st1"/>
				<path d="M0 143.27 L17.01 143.27" class="st1"/>
				<path d="M34.02 139.02 L17.01 139.02" class="st1"/>
			</g>
			<g id="shape37-69" v:mID="37" v:groupContext="shape" v:layerMember="0" transform="translate(5.95276,0)">
				<title>工作表.37</title>
				<v:userDefs>
					<v:ud v:nameU="X" v:val="VT0(0.029527559055118):24"/>
				</v:userDefs>
				<path d="M22.11 134.77 A22.9017 14.031 0 0 1 6.63 143.27 L0 143.27 A32.8126 20.103 -180 0 0 0 126.26 L6.63 126.26
							 A22.5949 13.8431 0 0 1 22.11 134.77 Z" class="st2"/>
			</g>
			<g id="shape38-71" v:mID="38" v:groupContext="shape" v:layerMember="0" transform="translate(0,2.83465)">
				<title>工作表.38</title>
			</g>
			<g id="shape39-73" v:mID="39" v:groupContext="shape" v:layerMember="0" transform="translate(23.0309,-2.13696)">
				<title>工作表.39</title>
			</g>
			<g id="shape40-75" v:mID="40" v:groupContext="shape" v:layerMember="0" transform="translate(5.95276,0)">
				<title>工作表.40</title>
			</g>
		</g>
		<g id="shape41-77" v:mID="41" v:groupContext="shape" transform="translate(266.068,-44.4432) rotate(57.1715)">
			<title>工作表.41</title>
			<path d="M0 143.27 L39.22 143.27" class="st4"/>
		</g>
		<g id="shape42-80" v:mID="42" v:groupContext="shape" transform="translate(25.3663,29.7773) rotate(-57.1152)">
			<title>工作表.42</title>
			<path d="M0 143.27 L39.16 143.27" class="st4"/>
		</g>
	</g>
</svg>
